<svg xmlns="http://www.w3.org/2000/svg" width="1320" height="560" viewBox="0 0 1320 560" role="img" aria-labelledby="title desc">
  <title id="title">3D-RAMS query-to-brief architecture flow</title>
  <desc id="desc">User submits a coordinate and options to a React UI and FastAPI endpoint. The backend can run an LLM-first Bedrock planner and synthesis path over allowlisted local tools, falls back to deterministic execution when needed, passes through a safety gate, and returns an inspectable review pack.</desc>
  <defs>
    <marker id="arrow" markerWidth="10" markerHeight="10" refX="9" refY="5" orient="auto" markerUnits="strokeWidth">
      <path d="M 0 0 L 10 5 L 0 10 z" fill="#1f2937" />
    </marker>
    <filter id="shadow" x="-10%" y="-20%" width="120%" height="140%">
      <feDropShadow dx="0" dy="4" stdDeviation="5" flood-color="#0f172a" flood-opacity="0.16" />
    </filter>
    <style>
      .bg { fill: #f8faf7; }
      .title { fill: #0f172a; font: 700 28px Arial, sans-serif; }
      .subtitle { fill: #475569; font: 400 15px Arial, sans-serif; }
      .node { fill: #ffffff; stroke: #cbd5e1; stroke-width: 1.5; filter: url(#shadow); }
      .node-accent { fill: #e7f5ef; stroke: #0f766e; }
      .node-ai { fill: #eff6ff; stroke: #2563eb; }
      .node-safety { fill: #fff7ed; stroke: #d97706; }
      .node-output { fill: #eef2ff; stroke: #4f46e5; }
      .node-future { fill: #f8fafc; stroke: #94a3b8; stroke-dasharray: 7 5; }
      .label { fill: #111827; font: 700 15px Arial, sans-serif; }
      .small { fill: #475569; font: 400 12px Arial, sans-serif; }
      .step { fill: #0f766e; font: 700 12px Arial, sans-serif; }
      .arrow { stroke: #1f2937; stroke-width: 2; fill: none; marker-end: url(#arrow); }
      .arrow-future { stroke: #64748b; stroke-width: 2; fill: none; stroke-dasharray: 7 5; marker-end: url(#arrow); }
      .lane { fill: #ffffff; stroke: #e2e8f0; stroke-width: 1; }
      .lane-title { fill: #64748b; font: 700 12px Arial, sans-serif; letter-spacing: 0.08em; }
      .note { fill: #334155; font: 400 12px Arial, sans-serif; }
    </style>
  </defs>

  <rect class="bg" width="1320" height="560" />
  <text class="title" x="48" y="54">3D-RAMS Architecture At A Glance</text>
  <text class="subtitle" x="48" y="80">Coordinate input to inspectable 3D pre-visit briefing pack, with LLM planning, allowlisted tools, deterministic fallback, safety gate, and future AWS observability.</text>

  <rect class="lane" x="40" y="112" width="308" height="324" rx="18" />
  <rect class="lane" x="372" y="112" width="188" height="324" rx="18" />
  <rect class="lane" x="584" y="112" width="424" height="324" rx="18" />
  <rect class="lane" x="1032" y="112" width="248" height="324" rx="18" />
  <text class="lane-title" x="64" y="140">BROWSER / FRONTEND</text>
  <text class="lane-title" x="396" y="140">API</text>
  <text class="lane-title" x="608" y="140">LLM PLANNER + TOOLS</text>
  <text class="lane-title" x="1056" y="140">REVIEW OUTPUT</text>

  <rect class="node node-accent" x="64" y="178" width="132" height="82" rx="14" />
  <text class="step" x="84" y="205">01</text>
  <text class="label" x="84" y="227">User request</text>
  <text class="small" x="84" y="247">Coordinate + options</text>

  <rect class="node" x="208" y="178" width="116" height="82" rx="14" />
  <text class="step" x="228" y="205">02</text>
  <text class="label" x="228" y="227">React UI</text>
  <text class="small" x="228" y="247">POST /api/run</text>

  <rect class="node" x="400" y="178" width="132" height="82" rx="14" />
  <text class="step" x="420" y="205">03</text>
  <text class="label" x="420" y="227">FastAPI</text>
  <text class="small" x="420" y="247">POST /api/run</text>

  <rect class="node node-accent" x="612" y="178" width="154" height="82" rx="14" />
  <text class="step" x="634" y="205">04</text>
  <text class="label" x="634" y="227">Agent runtime</text>
  <text class="small" x="634" y="247">Mode + fallback control</text>

  <rect class="node" x="800" y="132" width="184" height="66" rx="14" />
  <text class="label" x="822" y="159">Resolve + load</text>
  <text class="small" x="822" y="179">Location, geo, planning fixture</text>

  <rect class="node" x="800" y="216" width="184" height="66" rx="14" />
  <text class="label" x="822" y="243">Extract + annotate</text>
  <text class="small" x="822" y="263">Hazards, evidence, 3D pins</text>

  <rect class="node" x="800" y="300" width="184" height="66" rx="14" />
  <text class="label" x="822" y="327">Evidence brief</text>
  <text class="small" x="822" y="347">Trace + source output</text>

  <rect class="node node-ai" x="612" y="288" width="154" height="66" rx="14" />
  <text class="label" x="634" y="315">Bedrock planner</text>
  <text class="small" x="634" y="335">Plan + synthesize</text>

  <rect class="node node-safety" x="612" y="370" width="154" height="66" rx="14" />
  <text class="step" x="634" y="397">05</text>
  <text class="label" x="634" y="419">Safety gate</text>
  <text class="small" x="634" y="439">Review-required boundary</text>

  <rect class="node node-output" x="1060" y="166" width="196" height="178" rx="16" />
  <text class="step" x="1082" y="198">06</text>
  <text class="label" x="1082" y="221">Review pack</text>
  <text class="small" x="1082" y="246">3D scene + annotations</text>
  <text class="small" x="1082" y="268">Briefing + limitations</text>
  <text class="small" x="1082" y="290">Evidence + source register</text>
  <text class="small" x="1082" y="312">Trace + visualizer</text>

  <rect class="node node-future" x="1060" y="360" width="196" height="76" rx="16" />
  <text class="label" x="1082" y="388">Future AWS path</text>
  <text class="small" x="1082" y="408">CloudWatch traces</text>
  <text class="small" x="1082" y="428">Human review workflow</text>

  <path class="arrow" d="M196 219 H208" />
  <path class="arrow" d="M324 219 H400" />
  <path class="arrow" d="M532 219 H612" />
  <path class="arrow" d="M766 219 H800" />
  <path class="arrow" d="M892 198 V216" />
  <path class="arrow" d="M892 282 V300" />
  <path class="arrow" d="M800 333 H766" />
  <path class="arrow" d="M689 260 V288" />
  <path class="arrow" d="M689 354 V370" />
  <path class="arrow" d="M766 403 H1060" />
  <path class="arrow-future" d="M1256 398 H1276 V268 H1256" />

  <text class="note" x="48" y="480">Demo1 boundary: public-safe fixtures, LLM planner/synthesis when enabled, allowlisted local tools, and deterministic fallback. Future AWS observability and human review are planned paths, not live production claims.</text>
  <text class="note" x="48" y="502">The review pack is for human pre-visit review only. It does not certify RAMS, approve work, provide emergency guidance, scrape live planning portals, or use real client data.</text>
</svg>
